<svg width="29" height="29" viewBox="0 0 29 29" fill="none" xmlns="http://www.w3.org/2000/svg">
<path d="M18.0934 11.7546L9.57397 6.78125" stroke="#686666" stroke-width="1.5" stroke-linecap="round" stroke-linejoin="round"/>
<path d="M23.3657 18.8461L23.3229 10.4444C23.3207 10.0761 23.2231 9.71484 23.0399 9.39688C22.8568 9.07891 22.5945 8.81543 22.2794 8.63286L15.0182 4.46894C14.7028 4.28619 14.3456 4.19096 13.9825 4.19281C13.6194 4.19466 13.2631 4.29353 12.9496 4.47948L5.73117 8.71717C5.41797 8.90294 5.15839 9.16908 4.97848 9.48889C4.79857 9.80871 4.70466 10.171 4.70616 10.5393L4.74897 18.9409C4.75122 19.3092 4.84882 19.6705 5.03197 19.9885C5.21513 20.3064 5.47741 20.5699 5.79249 20.7525L13.0538 24.9164C13.3691 25.0992 13.7263 25.1944 14.0895 25.1925C14.4526 25.1907 14.8088 25.0918 15.1223 24.9059L22.3407 20.6682C22.6539 20.4824 22.9135 20.2163 23.0934 19.8964C23.2733 19.5766 23.3673 19.2144 23.3657 18.8461Z" stroke="#686666" stroke-width="1.5" stroke-linecap="round" stroke-linejoin="round"/>
<path d="M5.86719 10.0674L14.0358 14.6925L22.1569 9.98439" stroke="#686666" stroke-width="1.5" stroke-linecap="round" stroke-linejoin="round"/>
<path d="M14.0894 25.1922L14.0359 14.6924" stroke="#686666" stroke-width="1.5" stroke-linecap="round" stroke-linejoin="round"/>
</svg>
