<svg width="29" height="28" viewBox="0 0 29 28" fill="none" xmlns="http://www.w3.org/2000/svg">
<path d="M5.58252 9.3335H24.1995" stroke="#686666" stroke-width="1.5" stroke-linecap="round" stroke-linejoin="round"/>
<path d="M19.5452 3.5V5.83333" stroke="#686666" stroke-width="1.5" stroke-linecap="round" stroke-linejoin="round"/>
<path d="M10.2368 3.5V5.83333" stroke="#686666" stroke-width="1.5" stroke-linecap="round" stroke-linejoin="round"/>
<path d="M4.41895 6.99984C4.41895 5.71117 5.46084 4.6665 6.74607 4.6665H23.036C24.3212 4.6665 25.3631 5.71117 25.3631 6.99984V22.1665C25.3631 23.4552 24.3212 24.4998 23.036 24.4998H6.74607C5.46084 24.4998 4.41895 23.4552 4.41895 22.1665V6.99984Z" stroke="#686666" stroke-width="1.5" stroke-linecap="round" stroke-linejoin="round"/>
<path d="M19.5452 19.25H19.5472V19.252H19.5452V19.25Z" stroke="#686666" stroke-width="2" stroke-linecap="round" stroke-linejoin="round"/>
<path d="M14.8909 19.25H14.8929V19.252H14.8909V19.25Z" stroke="#686666" stroke-width="2" stroke-linecap="round" stroke-linejoin="round"/>
<path d="M10.2368 19.25H10.2388V19.252H10.2368V19.25Z" stroke="#686666" stroke-width="2" stroke-linecap="round" stroke-linejoin="round"/>
<path d="M19.5452 14.5835H19.5472V14.5855H19.5452V14.5835Z" stroke="#686666" stroke-width="1.5" stroke-linecap="round" stroke-linejoin="round"/>
<path d="M14.8909 14.5835H14.8929V14.5855H14.8909V14.5835Z" stroke="#686666" stroke-width="1.5" stroke-linecap="round" stroke-linejoin="round"/>
<path d="M10.2368 14.5835H10.2388V14.5855H10.2368V14.5835Z" stroke="#686666" stroke-width="1.5" stroke-linecap="round" stroke-linejoin="round"/>
</svg>
