<svg width="28" height="28" viewBox="0 0 28 28" fill="none" xmlns="http://www.w3.org/2000/svg">
<path d="M17.4535 11.6665C17.4535 15.5325 14.3278 18.6665 10.4721 18.6665C9.09828 18.6665 7.81713 18.2686 6.73704 17.5815L3.49072 18.6665L4.57283 15.4115C3.88755 14.3286 3.49072 13.044 3.49072 11.6665C3.49072 7.80051 6.61639 4.6665 10.4721 4.6665C14.3278 4.6665 17.4535 7.80051 17.4535 11.6665Z" stroke="#686666" stroke-width="1.5" stroke-linecap="round" stroke-linejoin="round"/>
<path d="M10.8652 18.6547C11.8202 21.3798 14.4094 23.3335 17.4536 23.3335C18.8274 23.3335 20.1086 22.9357 21.1887 22.2485L24.435 23.3335L23.3529 20.0785L23.5182 19.8036C24.1016 18.7808 24.435 17.5962 24.435 16.3335C24.435 12.4675 21.3093 9.3335 17.4536 9.3335L17.1919 9.33832L17.0605 9.34533" stroke="#686666" stroke-width="1.5" stroke-linecap="round" stroke-linejoin="round"/>
</svg>
