<svg width="24" height="24" viewBox="0 0 24 24" fill="none" xmlns="http://www.w3.org/2000/svg">
<path d="M3 6V5.25C2.58579 5.25 2.25 5.58579 2.25 6H3ZM14.4545 6H15.2045C15.2045 5.58579 14.8688 5.25 14.4545 5.25V6ZM14.4545 8.4375V7.6875C14.2556 7.6875 14.0649 7.76652 13.9242 7.90717C13.7836 8.04782 13.7045 8.23859 13.7045 8.4375H14.4545ZM18.8844 16.226L19.4128 15.6938L18.8844 16.226ZM18.8844 18.524L19.4128 19.0562L18.8844 18.524ZM3 6V6.75H14.4545V6V5.25H3V6ZM14.4545 6H13.7045V17.375H14.4545H15.2045V6H14.4545ZM3 15.375H3.75V6H3H2.25V15.375H3ZM14.4545 8.4375V9.1875H17V8.4375V7.6875H14.4545V8.4375ZM21 12.4375H20.25V15.7386H21H21.75V12.4375H21ZM14.4545 17.375H15.2045L15.2045 8.4375H14.4545H13.7045L13.7045 17.375H14.4545ZM18.8844 18.524L18.3559 17.9919C18.0093 18.336 17.4452 18.336 17.0987 17.9919L16.5702 18.524L16.0417 19.0562C16.9732 19.9813 18.4813 19.9813 19.4128 19.0562L18.8844 18.524ZM16.5702 16.226L17.0987 16.7581C17.4452 16.414 18.0093 16.414 18.3559 16.7581L18.8844 16.226L19.4128 15.6938C18.4813 14.7687 16.9732 14.7687 16.0417 15.6938L16.5702 16.226ZM8.24799 18.524L7.71951 17.9919C7.37294 18.336 6.80888 18.336 6.4623 17.9919L5.93383 18.524L5.40535 19.0562C6.33685 19.9813 7.84497 19.9813 8.77647 19.0562L8.24799 18.524ZM5.93383 16.226L6.4623 16.7581C6.80888 16.414 7.37294 16.414 7.71951 16.7581L8.24799 16.226L8.77647 15.6938C7.84497 14.7687 6.33685 14.7687 5.40535 15.6938L5.93383 16.226ZM18.8844 16.226L18.3559 16.7581C18.5285 16.9295 18.6136 17.1516 18.6136 17.375H19.3636H20.1136C20.1136 16.7667 19.8793 16.157 19.4128 15.6938L18.8844 16.226ZM19.3636 17.375H18.6136C18.6136 17.5984 18.5285 17.8205 18.3559 17.9919L18.8844 18.524L19.4128 19.0562C19.8793 18.593 20.1136 17.9833 20.1136 17.375H19.3636ZM16.0909 17.375V16.625H14.4545V17.375V18.125H16.0909V17.375ZM16.5702 18.524L17.0987 17.9919C16.9261 17.8205 16.8409 17.5984 16.8409 17.375H16.0909H15.3409C15.3409 17.9833 15.5753 18.593 16.0417 19.0562L16.5702 18.524ZM16.0909 17.375H16.8409C16.8409 17.1516 16.9261 16.9295 17.0987 16.7581L16.5702 16.226L16.0417 15.6938C15.5753 16.157 15.3409 16.7667 15.3409 17.375H16.0909ZM5.93383 18.524L6.4623 17.9919C6.28972 17.8205 6.20455 17.5984 6.20455 17.375H5.45455H4.70455C4.70455 17.9833 4.93889 18.593 5.40535 19.0562L5.93383 18.524ZM5.45455 17.375H6.20455C6.20455 17.1516 6.28972 16.9295 6.4623 16.7581L5.93383 16.226L5.40535 15.6938C4.93889 16.157 4.70455 16.7667 4.70455 17.375H5.45455ZM5.45455 17.375V16.625H5V17.375V18.125H5.45455V17.375ZM14.4545 17.375V16.625H8.72727V17.375V18.125H14.4545V17.375ZM8.24799 16.226L7.71951 16.7581C7.8921 16.9295 7.97727 17.1516 7.97727 17.375H8.72727H9.47727C9.47727 16.7667 9.24293 16.157 8.77647 15.6938L8.24799 16.226ZM8.72727 17.375H7.97727C7.97727 17.5984 7.8921 17.8205 7.71951 17.9919L8.24799 18.524L8.77647 19.0562C9.24293 18.593 9.47727 17.9833 9.47727 17.375H8.72727ZM21 15.7386H20.25C20.25 16.2282 19.8532 16.625 19.3636 16.625V17.375V18.125C20.6816 18.125 21.75 17.0566 21.75 15.7386H21ZM17 8.4375V9.1875C18.7949 9.1875 20.25 10.6426 20.25 12.4375H21H21.75C21.75 9.81415 19.6234 7.6875 17 7.6875V8.4375ZM3 15.375H2.25C2.25 16.8938 3.48122 18.125 5 18.125V17.375V16.625C4.30964 16.625 3.75 16.0654 3.75 15.375H3Z" fill="#686666"/>
</svg>
