<svg width="24" height="26" viewBox="0 0 24 26" fill="none" xmlns="http://www.w3.org/2000/svg">
<path fill-rule="evenodd" clip-rule="evenodd" d="M3.50083 14.936V14.6988C3.53295 13.9969 3.7406 13.3169 4.10236 12.7287C4.7045 12.0222 5.1167 11.1565 5.29571 10.2223C5.29571 9.50029 5.29571 8.76796 5.35393 8.04594C5.65469 4.56995 8.82728 2.16666 11.9611 2.16666H12.0387C15.1725 2.16666 18.345 4.56995 18.6555 8.04594C18.7137 8.76796 18.6555 9.50029 18.704 10.2223C18.8854 11.1587 19.2972 12.0271 19.8974 12.7391C20.2618 13.322 20.4698 13.9995 20.4989 14.6988V14.9257C20.5206 15.8687 20.2208 16.7882 19.6548 17.5147C18.907 18.3641 17.8921 18.8925 16.8024 19C13.607 19.3713 10.383 19.3713 7.18762 19C6.09914 18.8879 5.08576 18.3602 4.33521 17.5147C3.778 16.7877 3.48224 15.8736 3.50083 14.936Z" stroke="white" stroke-width="1.5" stroke-linecap="round" stroke-linejoin="round"/>
<path d="M9.55493 22.5894C10.0542 23.2683 10.7874 23.7077 11.5922 23.8103C12.3971 23.9129 13.2072 23.6702 13.8433 23.1361C14.0389 22.9781 14.2149 22.7944 14.3672 22.5894" stroke="white" stroke-width="1.5" stroke-linecap="round" stroke-linejoin="round"/>
</svg>
