<svg width="24" height="24" viewBox="0 0 24 24" fill="none" xmlns="http://www.w3.org/2000/svg">
<path d="M9 13C10.1046 13 11 12.1046 11 11C11 9.89543 10.1046 9 9 9C7.89543 9 7 9.89543 7 11C7 12.1046 7.89543 13 9 13Z" stroke="#686666" stroke-width="1.5" stroke-linecap="round" stroke-linejoin="round"/>
<path d="M6 18C6 16.8954 7.34315 16 9 16C10.6569 16 12 16.8954 12 18" stroke="#686666" stroke-width="1.5" stroke-linecap="round" stroke-linejoin="round"/>
<path d="M18 11L15 11" stroke="#686666" stroke-width="1.5" stroke-linecap="round" stroke-linejoin="round"/>
<path d="M18 14L15 14" stroke="#686666" stroke-width="1.5" stroke-linecap="round" stroke-linejoin="round"/>
<path d="M3 7C3 5.89543 3.89543 5 5 5H19C20.1046 5 21 5.89543 21 7V17C21 18.1046 20.1046 19 19 19H5C3.89543 19 3 18.1046 3 17V7Z" stroke="#686666" stroke-width="1.5" stroke-linecap="round" stroke-linejoin="round"/>
</svg>
